Coordinates
version=1
nRows=13
nColumns=22
inDegrees=yes

Units are S.I. units (second, meters, Newtons, ...)
If the header above contains a line with 'inDegrees', this indicates whether rotational values are in degrees (yes) or radians (no).

endheader
time	pelvis_tilt	pelvis_list	pelvis_rotation	pelvis_tx	pelvis_ty	pelvis_tz	hip_flexion_r	hip_adduction_r	hip_rotation_r	knee_angle_r	ankle_angle_r	subtalar_angle_r	hip_flexion_l	hip_adduction_l	hip_rotation_l	knee_angle_l	ankle_angle_l	subtalar_angle_l	lumbar_extension	lumbar_bending	lumbar_rotation
      2.06000000	      0.45050108	     -3.02924479	      1.54954758	      0.18261813	      0.94712812	      1.18724172	     -3.18185342	      3.03908337	     -5.76780240	    -14.66079035	     18.42674992	     -1.11974260	     30.57510602	    -11.08816992	     -8.92067351	    -36.24087061	      8.16888434	     -1.65842348	     -8.13915590	      6.47807522	     -0.92085563
      2.07000000	      0.37596636	     -2.94502921	      1.86426493	      0.18729259	      0.94617158	      1.18503490	     -3.41974333	      2.85355905	     -6.09620380	    -14.70031395	     18.70190610	     -1.02346823	     30.72679284	    -10.90837597	     -8.84323516	    -34.46048912	      8.14764224	     -1.68653976	     -8.10530764	      6.38729650	     -0.79838948
      2.08000000	      0.30178620	     -2.86967603	      2.18364153	      0.19207571	      0.94514341	      1.18275087	     -3.64177143	      2.67402505	     -6.41522019	    -14.78737900	     19.00184020	     -0.93365382	     30.84099746	    -10.72675575	     -8.74089731	    -32.68878914	      8.15161611	     -1.73804823	     -8.06715545	      6.29489952	     -0.67809181
      2.09000000	      0.20535314	     -2.78947872	      2.50458154	      0.19694817	      0.94401980	      1.18037842	     -3.80952493	      2.48239802	     -6.71780837	    -14.94880524	     19.31282881	     -0.87881137	     30.94011309	    -10.52542837	     -8.60635513	    -30.93869003	      8.20026737	     -1.79411056	     -8.00065572	      6.18879351	     -0.59635692
      2.10000000	      0.10766883	     -2.70443432	      2.82603643	      0.20190075	      0.94284011	      1.17789811	     -3.95103993	      2.27582840	     -7.01568197	    -15.17316988	     19.64559043	     -0.82461965	     31.00798600	    -10.31064498	     -8.45517126	    -29.23441756	      8.26519671	     -1.86855903	     -7.93433780	      6.07514403	     -0.52628185
      2.11000000	      0.01217606	     -2.61843407	      3.14148905	      0.20694150	      0.94161903	      1.17535095	     -4.06976835	      2.06253871	     -7.29743076	    -15.46009657	     19.98664368	     -0.75576306	     31.04679489	    -10.09472707	     -8.29491615	    -27.60529163	      8.33830238	     -1.96664491	     -7.87100344	      5.94495511	     -0.45540235
      2.12000000	     -0.04088434	     -2.52485495	      3.44615251	      0.21205839	      0.94043757	      1.17271240	     -4.20813925	      1.83215768	     -7.55402575	    -15.81152949	     20.32118505	     -0.55590485	     31.01478288	     -9.88139315	     -8.16233211	    -26.06653037	      8.36475004	     -2.16776496	     -7.86358569	      5.80065581	     -0.36671747
      2.13000000	     -0.14818513	     -2.43138983	      3.75548246	      0.21729565	      0.93910860	      1.16996150	     -4.27173714	      1.59535926	     -7.77561333	    -16.21749777	     20.66101297	     -0.51076680	     31.04931089	     -9.67159705	     -8.07434016	    -24.68668357	      8.48538560	     -2.26273764	     -7.78307651	      5.64445406	     -0.32601574
      2.14000000	     -0.20683337	     -2.32180370	      4.05453675	      0.22265791	      0.93784159	      1.16711024	     -4.36799482	      1.33634782	     -7.95188575	    -16.68581044	     20.97474657	     -0.41552029	     31.02120911	     -9.46367954	     -8.06831261	    -23.45624534	      8.55141813	     -2.40210028	     -7.75977649	      5.45942661	     -0.26558821
      2.15000000	     -0.23060967	     -2.20354005	      4.34976398	      0.22817550	      0.93661270	      1.16411179	     -4.49919717	      1.06351270	     -8.07423058	    -17.18790487	     21.25827569	     -0.29634985	     30.96307451	     -9.26362165	     -8.17477136	    -22.41427516	      8.60671048	     -2.55670911	     -7.77176475	      5.26308844	     -0.20382095
      2.16000000	     -0.16355959	     -2.07426590	      4.62961034	      0.23385599	      0.93553467	      1.16099083	     -4.72417999	      0.78027397	     -8.10998718	    -17.72757728	     21.47987330	     -0.03524672	     30.81521823	     -9.08449466	     -8.43832616	    -21.57462190	      8.60150884	     -2.78349670	     -7.89013702	      5.05654313	     -0.15583868
      2.17000000	     -0.14586419	     -1.96395695	      4.93452432	      0.23974016	      0.93435857	      1.15766055	     -4.91033617	      0.50590251	     -8.16332368	    -18.27364918	     21.68324640	      0.05599154	     30.76219793	     -8.91435467	     -8.76422323	    -20.98216489	      8.65215501	     -2.86121357	     -7.92361136	      4.86593445	     -0.09929677
      2.18000000	     -0.00682546	     -1.85718727	      5.21703610	      0.24579888	      0.93342765	      1.15421958	     -5.24273097	      0.24035625	     -8.14311505	    -18.81290048	     21.79783712	      0.33929500	     30.59407426	     -8.78860897	     -9.25641002	    -20.61334332	      8.62716902	     -2.97993210	     -8.09996705	      4.68481283	     -0.03988715
